# xmcd
#
# Track frame offsets: 
#        151
#        13912
#        32827
#        49816
#        65933
#        84922
#        98591
#        110688
#        125073
#        140398
#        158059
#        172536
#
# Disc length: 2539 seconds
#
# Revision: 0
# Processed by: cddbd v1.5.2PL0 Copyright (c) Steve Scherf et al.
# Submitted via: ExactAudioCopy v0.95b4
#
DISCID=9b09e90c
DTITLE=The Glory Light Trio - The Glory Light Trio
DYEAR=1999
DGENRE=Gospel
TTITLE0=So Much To Thank Him For
TTITLE1=From The Depths Of My Heart
TTITLE2=Lord I Want To Go To Heaven
TTITLE3=Guilty Of Loving Me
TTITLE4=Resurrection Morn
TTITLE5=Thank You Lord
TTITLE6=Here I Am
TTITLE7=Help Lord
TTITLE8=Lord I'll Go On For You
TTITLE9=Until I've Seen The Savior
TTITLE10=New Grace
TTITLE11=Lead Me To The Rock
EXTD=
EXTT0=
EXTT1=
EXTT2=
EXTT3=
EXTT4=
EXTT5=
EXTT6=
EXTT7=
EXTT8=
EXTT9=
EXTT10=
EXTT11=
PLAYORDER=
